# wavefront obj file written by the visualization toolkit

mtllib C:/slicermodels/Deep transverse muscle.mtl

v -9.70877 -23.4031 -119.346
v -9.70877 -23.4027 -119.346
v -9.70844 -23.403 -119.346
v -9.7091 -23.403 -119.346
v -9.70877 -23.4034 -119.346
v -11.3036 -24.6039 -119.265
v -11.2304 -24.5852 -119.267
v -11.3461 -24.6134 -119.265
v -11.7009 -24.7 -119.26
v -11.4687 -24.6443 -119.263
v -11.7738 -24.7181 -119.259
v -11.3037 -24.6019 -119.267
v -11.4692 -24.6417 -119.264
v -11.5607 -24.6642 -119.262
v -12.1919 -24.8199 -119.253
v -12.1166 -24.8006 -119.253
v -12.6813 -24.939 -119.243
v -12.6813 -24.9397 -119.245
v -13.002 -25.0177 -119.238
v -13.002 -25.0187 -119.239
v -13.1195 -25.0473 -119.236
v -11.7741 -24.716 -119.258
v -12.192 -24.8186 -119.251
v -12.6813 -24.9386 -119.243
v -13.0019 -25.0177 -119.238
v -15.1319 -25.9012 -119.18
v -15.1318 -25.9006 -119.18
v -15.1319 -25.9007 -119.179
v -15.1323 -25.9004 -119.179
v -15.1323 -25.9011 -119.18
v -15.1325 -25.9006 -119.18
v -15.1319 -25.9 -119.18
v -15.1323 -25.9001 -119.18
v -8.48198 -16.4667 -118.305
v -8.64162 -16.4205 -118.307
v -8.02873 -16.5494 -118.301
v -9.42417 -16.2954 -118.312
v -9.32008 -16.2985 -118.312
v -10.2681 -16.1689 -118.319
v -10.1338 -16.1758 -118.32
v -10.9809 -16.0845 -118.327
v -10.8506 -16.0908 -118.328
v -11.4359 -16.0412 -118.334
v -11.3731 -16.043 -118.335
v -11.5927 -16.0273 -118.336
v -11.6385 -16.0228 -118.339
v -11.7095 -16.0164 -118.339
v 12.4955 -17.5151 -118.252
v 12.4973 -17.462 -118.238
v 12.7932 -17.518 -118.242
v 11.8897 -17.5319 -118.241
v 12.195 -17.4486 -118.24
v 11.8175 -17.4962 -118.229
v -3.60166 -17.1476 -118.254
v -3.59642 -17.1524 -118.252
v -3.37861 -17.1549 -118.256
v -4.10956 -17.1263 -118.253
v -4.01996 -17.1363 -118.25
v -4.83815 -17.0762 -118.258
v -4.70784 -17.092 -118.253
v -5.69215 -16.9842 -118.268
v -5.54428 -17.0048 -118.262
v -6.59696 -16.8458 -118.281
v -6.44339 -16.8689 -118.276
v -7.49987 -16.6717 -118.294
v -7.33163 -16.6978 -118.29
v -7.77561 -16.6313 -118.295
v -8.67767 -16.4448 -118.303
v -9.5751 -16.2804 -118.31
v -10.4113 -16.1551 -118.317
v -11.137 -16.0692 -118.326
v -11.4237 -16.0384 -118.33
v -11.6124 -16.0224 -118.336
v 12.9856 -17.6144 -118.252
v 13.0003 -17.5956 -118.236
v 13.1786 -17.6721 -118.241
v 12.6579 -17.6341 -118.256
v 12.0846 -17.6404 -118.245
v 11.4386 -17.5993 -118.222
v 11.235 -17.7391 -118.221
v 10.9239 -17.7626 -118.206
v -3.37504 -17.1529 -118.258
v -3.32255 -17.1568 -118.259
v -3.65697 -17.145 -118.258
v -4.21564 -17.1225 -118.258
v -4.97328 -17.0705 -118.262
v -5.84114 -16.9759 -118.271
v -6.79191 -16.8294 -118.283
v -7.24664 -16.7537 -118.286
v -7.94447 -16.6026 -118.294
v -8.83105 -16.4162 -118.301
v -9.71894 -16.2533 -118.308
v -10.5178 -16.1345 -118.315
v -11.0647 -16.0692 -118.323
v 13.2023 -17.7127 -118.249
v 13.2189 -17.7357 -118.237
v 12.9622 -17.7156 -118.252
v 12.4405 -17.7316 -118.241
v 11.632 -17.7958 -118.221
v 10.3266 -17.9714 -118.192
v 10.5401 -17.9808 -118.193
v 9.67415 -18.1963 -118.172
v 9.65921 -18.1861 -118.176
v 9.23867 -18.3111 -118.165
v 9.23966 -18.3109 -118.166
v 9.08844 -18.3521 -118.164
v -3.41382 -17.1538 -118.26
v -3.73734 -17.1471 -118.26
v -4.33195 -17.1242 -118.258
v -5.10564 -17.07 -118.261
v -5.94476 -16.9769 -118.269
v -6.63167 -16.8739 -118.277
v 13.1522 -17.7621 -118.242
v 12.8194 -17.7736 -118.233
v 12.1808 -17.7943 -118.215
v 11.3144 -17.8698 -118.195
v 10.4029 -18.0138 -118.179
v 9.65461 -18.1868 -118.171
v 9.23119 -18.3058 -118.166
v -13.4632 -20.806 -118.012
v -13.4632 -20.8065 -118.013
v -13.463 -20.8059 -118.013
v -13.4636 -20.8057 -118.012
v -13.4636 -20.8064 -118.013
v -13.4637 -20.8059 -118.013
v -13.4632 -20.8054 -118.013
v -13.4636 -20.8054 -118.013
v -3.86825 -22.471 -117.903
v -3.86825 -22.4706 -117.902
v -3.86792 -22.471 -117.902
v -3.86858 -22.471 -117.902
v -3.86825 -22.4713 -117.902
v -9.70877 -23.403 -119.345
v -11.3462 -24.6132 -119.266
v -11.5602 -24.6661 -119.261
v -11.7013 -24.6991 -119.259
v -12.1165 -24.801 -119.252
v -12.6813 -24.9393 -119.244
v -13.0019 -25.0186 -119.239
v -15.1319 -25.9005 -119.181
v -15.1323 -25.9008 -119.181
v -8.20411 -16.5174 -118.299
v -9.17591 -16.3232 -118.308
v -10.0035 -16.1892 -118.315
v -10.7418 -16.0969 -118.325
v -11.2395 -16.0493 -118.333
v -11.5706 -16.0245 -118.337
v 12.6206 -17.5554 -118.22
v 12.1188 -17.4974 -118.221
v -3.49228 -17.1565 -118.256
v -3.92393 -17.1462 -118.252
v -4.58015 -17.1112 -118.251
v -5.39128 -17.0356 -118.258
v -6.29153 -16.9065 -118.27
v -7.23065 -16.7275 -118.285
v -8.04542 -16.5696 -118.293
v -8.98001 -16.3745 -118.303
v -9.86154 -16.218 -118.31
v -10.6263 -16.1124 -118.319
v -11.2637 -16.0479 -118.33
v 12.9807 -17.6825 -118.222
v 12.5118 -17.6741 -118.203
v 12.0074 -17.6383 -118.199
v 11.4101 -17.6493 -118.204
v -3.46379 -17.1562 -118.259
v -3.82475 -17.1496 -118.257
v -4.45395 -17.1229 -118.255
v -5.24074 -17.061 -118.258
v -6.09143 -16.9548 -118.268
v -7.07093 -16.7799 -118.281
v 13.0597 -17.7626 -118.228
v 12.6601 -17.755 -118.212
v 12.0093 -17.7607 -118.195
v 11.2393 -17.81 -118.187
v 10.4408 -17.9425 -118.185
v 9.63967 -18.1766 -118.175
v 9.23218 -18.3057 -118.167
v -13.4632 -20.8059 -118.014
v -13.4636 -20.8061 -118.014
v -3.86825 -22.4709 -117.902
vn 0.00145936 -0.0672998 -0.997732
vn 0.000818519 0.997577 -0.0695598
vn 0.999995 6.85306e-005 -0.00315884
vn -0.999995 6.95719e-005 -0.00316678
vn 0.00081918 -0.997996 0.0632652
vn 0.144714 -0.636806 -0.757321
vn 0.370843 -0.169527 0.913092
vn -0.0845809 0.407045 0.909484
vn -0.0587883 0.299083 0.952414
vn -0.219858 0.923333 0.314831
vn -0.235742 0.971768 0.00965441
vn -0.133715 0.614425 0.777562
vn 0.199194 -0.856415 -0.476313
vn 0.0521501 -0.147127 0.987742
vn -0.210086 0.887708 0.409681
vn 0.188571 -0.724513 0.662965
vn 0.208544 -0.811129 0.546424
vn 0.237478 -0.968636 -0.0731331
vn 0.0301109 -0.0697689 0.997109
vn 0.232145 -0.925094 0.300517
vn -0.72097 0.102368 -0.685363
vn 0.236234 -0.970178 -0.054305
vn 0.191778 -0.817136 -0.543609
vn -0.236778 0.969372 0.0652186
vn -0.234359 0.923251 -0.304439
vn 0.615138 -0.778448 -0.124994
vn 1 0 1.92383e-009
vn 0.738546 -0.287809 0.609685
vn -0.743689 0.363856 0.560834
vn -0.617294 -0.753344 0.226765
vn -1 -6.83761e-005 0.000514522
vn 0.613387 0.779609 0.126359
vn -0.616282 0.754079 -0.227072
vn -0.00870254 -0.0899677 -0.995907
vn 0.182299 0.930685 -0.317165
vn 0.150937 0.672338 -0.724693
vn -0.0234115 -0.189079 -0.981683
vn 0.0894072 0.491074 -0.866518
vn -0.0395456 -0.366898 -0.92942
vn 0.0339937 0.180575 -0.982974
vn -0.0603605 -0.659024 -0.749696
vn 0.0123079 -0.00555156 -0.999909
vn -0.0737364 -0.890205 -0.449553
vn -0.000809857 -0.16344 -0.986553
vn -0.0911593 -0.823782 0.559529
vn -0.0412774 -0.571934 -0.819261
vn -0.253293 0.880737 0.40018
vn 0.00498149 0.118513 -0.99294
vn 0.0899787 0.811245 0.577742
vn 0.239816 0.83987 -0.486935
vn -0.0403882 0.0943655 -0.994718
vn -0.0426485 0.763886 -0.64394
vn -0.155705 0.839855 0.519999
vn 0.0295398 0.716367 0.697098
vn 0.00613405 -0.219172 0.975667
vn 0.0357184 0.112883 0.992966
vn 0.0478356 0.926063 0.374324
vn 0.0100031 0.171415 0.985148
vn 0.0859589 0.993356 -0.0765169
vn 0.0276179 0.406387 0.913284
vn 0.108422 0.734112 -0.670317
vn 0.0679197 0.621908 0.780139
vn 0.0636148 0.296709 -0.952847
vn 0.143931 0.906405 0.397132
vn 0.0123738 -0.00434984 -0.999914
vn 0.200851 0.967954 -0.150748
vn -0.0415011 -0.249371 -0.967518
vn -0.0994801 -0.544616 -0.832765
vn -0.152157 -0.909353 -0.387203
vn -0.130287 -0.980656 0.146077
vn -0.0902103 -0.786064 0.611527
vn -0.0146607 0.113307 0.993452
vn 0.0189128 0.594624 0.803781
vn 0.0932698 0.227182 -0.969376
vn 0.296182 0.742032 0.601385
vn 0.650057 0.759531 0.0232111
vn -0.00624519 -0.0354014 -0.999354
vn -0.019141 -0.0535681 -0.998381
vn -0.219591 0.678189 -0.701313
vn -0.0314742 -0.0113496 -0.99944
vn -0.288516 0.892169 0.347552
vn 0.0457159 0.998521 0.0294406
vn 0.103359 -0.78418 -0.611865
vn 0.0296935 0.888731 -0.457466
vn 0.0310967 0.534382 -0.844671
vn 0.020272 0.151834 -0.988198
vn 0.00502297 -0.0495122 -0.998761
vn -0.0104353 -0.131324 -0.991285
vn -0.157406 -0.797676 -0.582183
vn -0.205879 -0.956065 0.208694
vn -0.141081 -0.705966 0.694052
vn -0.0631251 -0.330873 0.941562
vn -0.0244688 -0.0968959 0.994994
vn 0.00937165 0.264489 0.964343
vn 0.285225 0.0732301 -0.955659
vn 0.597413 -0.0981832 0.795901
vn -0.00199358 -0.141396 -0.989951
vn -0.010905 -0.234417 -0.972075
vn 0.0122958 -0.303591 -0.952723
vn -0.175069 0.464971 -0.867844
vn 0.0763815 -0.472876 -0.877812
vn 0.245108 -0.964346 0.0997919
vn 0.00648368 -0.106364 -0.994306
vn 0.139006 -0.481103 0.865573
vn 0.162867 -0.65492 -0.737939
vn -0.688163 -0.382547 -0.616514
vn 0.0107039 0.297237 -0.954744
vn -0.00265871 -0.0260115 -0.999658
vn -0.0131296 -0.270375 -0.962665
vn -0.0322875 -0.43529 -0.899711
vn -0.0823898 -0.678565 -0.729905
vn -0.16386 -0.98645 0.00814714
vn 0.127736 -0.772619 -0.621887
vn 0.0165514 -0.944743 -0.327393
vn 0.0512026 -0.998222 -0.0305293
vn 0.129167 -0.962281 0.239439
vn 0.101152 -0.440612 0.891981
vn -0.0156747 0.0973512 0.995127
vn -0.196257 0.65356 0.730987
vn 0.744932 -0.286852 0.602322
vn 0.620446 -0.773873 -0.12715
vn 1 -0.000280779 -0.000408435
vn -0.738326 0.365023 0.567127
vn -0.61164 -0.757518 0.228173
vn -1 -0.000271499 -0.000446402
vn 0.620664 0.773763 0.126756
vn -0.611752 0.757286 -0.228644
vn -0.000369329 -0.04724 -0.998883
vn -0.000201858 0.997739 -0.0672096
vn 0.999927 0.0120628 -0.00105117
vn -0.999927 0.0120596 -0.00105069
vn -0.000205027 -0.99777 0.0667386
vn 0.0014746 0.0683136 0.997663
vn 0.0822141 -0.401542 -0.912143
vn -0.0541753 0.158021 -0.985948
vn 0.024604 -0.17337 -0.984549
vn -0.196953 0.767634 -0.609875
vn -0.20817 0.812374 -0.544714
vn -0.0371332 0.0715579 -0.996745
vn 0.741981 0.28714 -0.605818
vn -0.740952 -0.36524 -0.563552
vn 0.0741793 0.404215 0.911651
vn 0.106192 0.64501 0.75676
vn 0.137424 0.972785 0.186556
vn 0.106619 0.92792 -0.357206
vn 0.0712804 0.708616 -0.701985
vn 0.0641245 0.838831 -0.540602
vn 0.0408865 0.17967 0.982877
vn -0.00132165 0.245496 0.969397
vn -0.00764885 -0.939916 0.341321
vn -0.0245313 -0.753608 0.656866
vn -0.0263574 -0.334726 0.941947
vn -0.010938 -0.00535639 0.999926
vn 0.00713133 0.130154 0.991468
vn 0.0347039 0.240351 0.970066
vn -0.00349143 0.0364386 0.99933
vn 0.0158255 0.128272 0.991613
vn 0.0307799 0.259025 0.96538
vn 0.0632794 0.63584 0.769222
vn 0.0649509 0.857691 0.510047
vn 0.0592922 0.0611775 0.996364
vn 0.0270481 0.0339546 0.999057
vn 0.00479317 0.102981 0.994672
vn -0.046474 0.246305 0.968077
vn -0.0105523 -0.672309 -0.740196
vn -0.0279128 -0.854011 -0.519506
vn -0.059854 -0.976287 -0.208044
vn -0.089713 -0.873905 0.477747
vn -0.0683777 -0.401688 0.91322
vn -0.0343013 -0.104798 0.993902
vn 0.0663871 -0.498773 0.864187
vn 0.0330913 -0.305331 0.951671
vn 0.0233492 -0.134097 0.990693
vn 0.00288477 0.0271302 0.999628
vn -0.098052 0.366774 0.925128
vn -0.29354 0.951893 0.0879449
vn -0.165181 0.455362 -0.874849
vn 0.744683 0.286474 -0.60281
vn -0.737842 -0.365295 -0.567581
vn -0.00036978 0.090252 0.995919

g grp1
usemtl mtl1
f 1//1 2//2 3//3 
f 2//2 1//1 4//4 
f 1//1 3//3 5//5 
f 6//6 7//7 8//8 
f 4//4 1//1 5//5 
f 8//8 9//9 10//10 
f 6//6 8//8 10//10 
f 10//10 9//9 11//11 
f 8//8 7//7 12//12 
f 12//12 13//13 14//14 
f 12//12 14//14 8//8 
f 8//8 14//14 9//9 
f 15//15 11//11 9//9 
f 15//15 9//9 16//16 
f 16//16 9//9 14//14 
f 16//16 17//17 18//18 
f 15//15 16//16 18//18 
f 17//17 19//19 20//20 
f 18//18 17//17 20//20 
f 20//20 19//19 21//21 
f 14//14 13//13 22//22 
f 16//16 14//14 22//22 
f 23//23 16//16 22//22 
f 17//17 16//16 23//23 
f 24//24 17//17 23//23 
f 19//19 17//17 24//24 
f 25//25 19//19 24//24 
f 26//26 27//27 28//28 
f 21//21 19//19 25//25 
f 28//28 29//29 30//30 
f 26//26 28//28 30//30 
f 30//30 29//29 31//31 
f 28//28 27//27 32//32 
f 29//29 28//28 32//32 
f 33//33 29//29 32//32 
f 31//31 29//29 33//33 
f 34//34 35//35 36//36 
f 34//34 37//37 38//38 
f 35//35 34//34 38//38 
f 37//37 39//39 40//40 
f 38//38 37//37 40//40 
f 39//39 41//41 42//42 
f 40//40 39//39 42//42 
f 41//41 43//43 44//44 
f 42//42 41//41 44//44 
f 43//43 45//45 46//46 
f 44//44 43//43 46//46 
f 46//46 45//45 47//47 
f 48//48 49//49 50//50 
f 48//48 51//51 52//52 
f 49//49 48//48 52//52 
f 52//52 51//51 53//53 
f 54//54 55//55 56//56 
f 54//54 57//57 58//58 
f 55//55 54//54 58//58 
f 57//57 59//59 60//60 
f 58//58 57//57 60//60 
f 59//59 61//61 62//62 
f 60//60 59//59 62//62 
f 61//61 63//63 64//64 
f 62//62 61//61 64//64 
f 63//63 65//65 66//66 
f 64//64 63//63 66//66 
f 36//36 66//66 65//65 
f 36//36 65//65 34//34 
f 34//34 65//65 67//67 
f 37//37 34//34 68//68 
f 68//68 34//34 67//67 
f 39//39 37//37 69//69 
f 69//69 37//37 68//68 
f 41//41 39//39 70//70 
f 70//70 39//39 69//69 
f 43//43 41//41 71//71 
f 71//71 41//41 70//70 
f 72//72 73//73 45//45 
f 72//72 45//45 71//71 
f 71//71 45//45 43//43 
f 47//47 45//45 73//73 
f 74//74 75//75 76//76 
f 50//50 75//75 74//74 
f 50//50 74//74 48//48 
f 48//48 74//74 77//77 
f 51//51 48//48 78//78 
f 78//78 48//48 77//77 
f 79//79 53//53 51//51 
f 79//79 51//51 80//80 
f 80//80 51//51 78//78 
f 79//79 80//80 81//81 
f 82//82 54//54 56//56 
f 83//83 82//82 56//56 
f 57//57 54//54 84//84 
f 84//84 54//54 82//82 
f 59//59 57//57 85//85 
f 85//85 57//57 84//84 
f 61//61 59//59 86//86 
f 86//86 59//59 85//85 
f 63//63 61//61 87//87 
f 87//87 61//61 86//86 
f 65//65 63//63 88//88 
f 88//88 63//63 87//87 
f 89//89 90//90 67//67 
f 89//89 67//67 88//88 
f 88//88 67//67 65//65 
f 68//68 67//67 90//90 
f 91//91 68//68 90//90 
f 69//69 68//68 91//91 
f 92//92 69//69 91//91 
f 70//70 69//69 92//92 
f 93//93 70//70 92//92 
f 71//71 70//70 93//93 
f 94//94 71//71 93//93 
f 72//72 71//71 94//94 
f 95//95 74//74 76//76 
f 96//96 95//95 76//76 
f 77//77 74//74 97//97 
f 97//97 74//74 95//95 
f 78//78 77//77 98//98 
f 98//98 77//77 97//97 
f 80//80 78//78 99//99 
f 99//99 78//78 98//98 
f 100//100 81//81 80//80 
f 100//100 80//80 101//101 
f 101//101 80//80 99//99 
f 101//101 102//102 103//103 
f 100//100 101//101 103//103 
f 102//102 104//104 105//105 
f 103//103 102//102 105//105 
f 105//105 104//104 106//106 
f 82//82 83//83 107//107 
f 84//84 82//82 107//107 
f 108//108 84//84 107//107 
f 85//85 84//84 108//108 
f 109//109 85//85 108//108 
f 86//86 85//85 109//109 
f 110//110 86//86 109//109 
f 87//87 86//86 110//110 
f 111//111 87//87 110//110 
f 88//88 87//87 111//111 
f 112//112 88//88 111//111 
f 89//89 88//88 112//112 
f 95//95 96//96 113//113 
f 97//97 95//95 113//113 
f 114//114 97//97 113//113 
f 98//98 97//97 114//114 
f 115//115 98//98 114//114 
f 99//99 98//98 115//115 
f 116//116 99//99 115//115 
f 101//101 99//99 116//116 
f 117//117 101//101 116//116 
f 102//102 101//101 117//117 
f 118//118 102//102 117//117 
f 104//104 102//102 118//118 
f 119//119 104//104 118//118 
f 106//106 104//104 119//119 
f 120//120 121//121 122//122 
f 120//120 123//123 124//124 
f 121//121 120//120 124//124 
f 124//124 123//123 125//125 
f 120//120 122//122 126//126 
f 123//123 120//120 126//126 
f 127//127 123//123 126//126 
f 125//125 123//123 127//127 
f 128//128 129//129 130//130 
f 129//129 128//128 131//131 
f 128//128 130//130 132//132 
f 131//131 128//128 132//132 
f 2//2 133//133 3//3 
f 2//2 4//4 133//133 
f 3//3 133//133 5//5 
f 4//4 5//5 133//133 
f 6//6 134//134 7//7 
f 6//6 10//10 135//135 
f 134//134 6//6 135//135 
f 10//10 11//11 135//135 
f 7//7 134//134 12//12 
f 13//13 12//12 134//134 
f 13//13 134//134 136//136 
f 136//136 134//134 135//135 
f 11//11 15//15 137//137 
f 11//11 137//137 135//135 
f 135//135 137//137 136//136 
f 15//15 18//18 138//138 
f 137//137 15//15 138//138 
f 18//18 20//20 139//139 
f 138//138 18//18 139//139 
f 20//20 21//21 139//139 
f 13//13 136//136 22//22 
f 23//23 22//22 136//136 
f 137//137 23//23 136//136 
f 24//24 23//23 137//137 
f 138//138 24//24 137//137 
f 25//25 24//24 138//138 
f 139//139 25//25 138//138 
f 21//21 25//25 139//139 
f 26//26 140//140 27//27 
f 26//26 30//30 141//141 
f 140//140 26//26 141//141 
f 30//30 31//31 141//141 
f 27//27 140//140 32//32 
f 33//33 32//32 140//140 
f 141//141 33//33 140//140 
f 31//31 33//33 141//141 
f 35//35 142//142 36//36 
f 35//35 38//38 143//143 
f 142//142 35//35 143//143 
f 38//38 40//40 144//144 
f 143//143 38//38 144//144 
f 40//40 42//42 145//145 
f 144//144 40//40 145//145 
f 42//42 44//44 146//146 
f 145//145 42//42 146//146 
f 44//44 46//46 147//147 
f 146//146 44//44 147//147 
f 46//46 47//47 147//147 
f 49//49 148//148 50//50 
f 49//49 52//52 149//149 
f 148//148 49//49 149//149 
f 52//52 53//53 149//149 
f 55//55 150//150 56//56 
f 55//55 58//58 151//151 
f 150//150 55//55 151//151 
f 58//58 60//60 152//152 
f 151//151 58//58 152//152 
f 60//60 62//62 153//153 
f 152//152 60//60 153//153 
f 62//62 64//64 154//154 
f 153//153 62//62 154//154 
f 64//64 66//66 155//155 
f 154//154 64//64 155//155 
f 66//66 36//36 142//142 
f 66//66 142//142 155//155 
f 155//155 142//142 156//156 
f 143//143 157//157 142//142 
f 157//157 156//156 142//142 
f 144//144 158//158 143//143 
f 158//158 157//157 143//143 
f 145//145 159//159 144//144 
f 159//159 158//158 144//144 
f 146//146 160//160 145//145 
f 160//160 159//159 145//145 
f 73//73 72//72 160//160 
f 73//73 160//160 147//147 
f 147//147 160//160 146//146 
f 47//47 73//73 147//147 
f 75//75 161//161 76//76 
f 75//75 50//50 148//148 
f 75//75 148//148 161//161 
f 161//161 148//148 162//162 
f 149//149 163//163 148//148 
f 163//163 162//162 148//148 
f 53//53 79//79 164//164 
f 53//53 164//164 149//149 
f 149//149 164//164 163//163 
f 79//79 81//81 164//164 
f 150//150 165//165 83//83 
f 56//56 150//150 83//83 
f 151//151 166//166 150//150 
f 166//166 165//165 150//150 
f 152//152 167//167 151//151 
f 167//167 166//166 151//151 
f 153//153 168//168 152//152 
f 168//168 167//167 152//152 
f 154//154 169//169 153//153 
f 169//169 168//168 153//153 
f 155//155 170//170 154//154 
f 170//170 169//169 154//154 
f 90//90 89//89 170//170 
f 90//90 170//170 156//156 
f 156//156 170//170 155//155 
f 91//91 90//90 156//156 
f 157//157 91//91 156//156 
f 92//92 91//91 157//157 
f 158//158 92//92 157//157 
f 93//93 92//92 158//158 
f 159//159 93//93 158//158 
f 94//94 93//93 159//159 
f 160//160 94//94 159//159 
f 72//72 94//94 160//160 
f 161//161 171//171 96//96 
f 76//76 161//161 96//96 
f 162//162 172//172 161//161 
f 172//172 171//171 161//161 
f 163//163 173//173 162//162 
f 173//173 172//172 162//162 
f 164//164 174//174 163//163 
f 174//174 173//173 163//163 
f 81//81 100//100 175//175 
f 81//81 175//175 164//164 
f 164//164 175//175 174//174 
f 100//100 103//103 176//176 
f 175//175 100//100 176//176 
f 103//103 105//105 177//177 
f 176//176 103//103 177//177 
f 105//105 106//106 177//177 
f 83//83 165//165 107//107 
f 108//108 107//107 165//165 
f 166//166 108//108 165//165 
f 109//109 108//108 166//166 
f 167//167 109//109 166//166 
f 110//110 109//109 167//167 
f 168//168 110//110 167//167 
f 111//111 110//110 168//168 
f 169//169 111//111 168//168 
f 112//112 111//111 169//169 
f 170//170 112//112 169//169 
f 89//89 112//112 170//170 
f 96//96 171//171 113//113 
f 114//114 113//113 171//171 
f 172//172 114//114 171//171 
f 115//115 114//114 172//172 
f 173//173 115//115 172//172 
f 116//116 115//115 173//173 
f 174//174 116//116 173//173 
f 117//117 116//116 174//174 
f 175//175 117//117 174//174 
f 118//118 117//117 175//175 
f 176//176 118//118 175//175 
f 119//119 118//118 176//176 
f 177//177 119//119 176//176 
f 106//106 119//119 177//177 
f 121//121 178//178 122//122 
f 121//121 124//124 179//179 
f 178//178 121//121 179//179 
f 124//124 125//125 179//179 
f 122//122 178//178 126//126 
f 127//127 126//126 178//178 
f 179//179 127//127 178//178 
f 125//125 127//127 179//179 
f 129//129 180//180 130//130 
f 129//129 131//131 180//180 
f 130//130 180//180 132//132 
f 131//131 132//132 180//180 
